<svg xmlns="http://www.w3.org/2000/svg" viewBox="0 0 64 64" fill="none">
  <defs>
    <linearGradient id="bg" x1="0" y1="0" x2="64" y2="64" gradientUnits="userSpaceOnUse">
      <stop offset="0" stop-color="#6366f1"/>
      <stop offset="1" stop-color="#0ea5e9"/>
    </linearGradient>
  </defs>
  <rect width="64" height="64" rx="14" fill="url(#bg)"/>
  <g transform="translate(12 12) scale(1.667)" fill="white">
    <path fill-rule="evenodd" clip-rule="evenodd" d="M4.125 3C3.089 3 2.25 3.84 2.25 4.875V18a3 3 0 0 0 3 3h15a3 3 0 0 0 3-3V9a.75.75 0 0 0-.75-.75H18V4.875C18 3.839 17.16 3 16.125 3h-12ZM18 9.75v8.25c0 .414.336.75.75.75a1.5 1.5 0 0 0 1.5-1.5V9.75H18ZM7.5 6.75a.75.75 0 0 1 .75-.75h3.75a.75.75 0 0 1 .75.75v3a.75.75 0 0 1-.75.75H8.25a.75.75 0 0 1-.75-.75v-3ZM8.25 12a.75.75 0 0 0 0 1.5h.75a.75.75 0 0 0 0-1.5h-.75ZM12 12a.75.75 0 0 0 0 1.5h3a.75.75 0 0 0 0-1.5h-3ZM8.25 15a.75.75 0 0 0 0 1.5h.75a.75.75 0 0 0 0-1.5h-.75ZM12 15a.75.75 0 0 0 0 1.5h3a.75.75 0 0 0 0-1.5h-3Z"/>
  </g>
</svg>
